<svg xmlns="http://www.w3.org/2000/svg" viewBox="0 0 115.49 116.77"><title>&#x8D44;&#x6E90; 36</title><path d="M22.43 55.33c.21 16.24 6.55 26.38 18 33.28A33.21 33.21 0 0 0 60.31 93a36.18 36.18 0 0 0 19.85-7.82c1.13-.87 1.75-.32 2.49.43l14.5 14.51L112 115a7.25 7.25 0 0 1 .62.62c.24.29.7.57.31 1s-.65.12-1 0l-11-4.36-12-4.7a2.36 2.36 0 0 0-2.28.2A54.77 54.77 0 0 1 66.26 115a56.86 56.86 0 0 1-39.07-8.2A56.52 56.52 0 0 1 3.36 77.21a55.88 55.88 0 0 1-3.14-24 57.45 57.45 0 0 1 13.47-32.73A56.34 56.34 0 0 1 40.37 2.75 54.74 54.74 0 0 1 58.13 0 57.53 57.53 0 0 1 94.7 13.48a56.7 56.7 0 0 1 18.72 29A56.15 56.15 0 0 1 115.23 63 59.33 59.33 0 0 1 108 86.33a51.56 51.56 0 0 1-6.85 9.59c-1 1.1-1.67 1-2.68 0-6.83-6.92-13.73-13.83-20.61-20.7q-4.55-4.55-9.09-9.08c-.31-.31-.87-.63-.57-1.14s.94-.28 1.41-.13c4.9 1.57 9.8 3.17 14.7 4.73a41.4 41.4 0 0 0 4.63 1.45A1.58 1.58 0 0 0 91 69.78c3.11-10.06 2.73-19.78-2.52-29.16A34.08 34.08 0 0 0 67 23.73a35.14 35.14 0 0 0-39.53 15.83c-3.37 5.59-5.35 11.67-5.04 15.77z" fill="#2a3dec"/></svg>